<?xml version="1.0" encoding="utf-8"?>
<!DOCTYPE svg PUBLIC "-//W3C//DTD SVG 1.0//EN" "http://www.w3.org/TR/2001/REC-SVG-20010904/DTD/svg10.dtd">
<svg xmlns="http://www.w3.org/2000/svg" xml:space="preserve" xmlns:xlink="http://www.w3.org/1999/xlink" width="360" height="360" viewBox="0 0 360 360">
<desc></desc>
<rect width="360" height="360" fill="#ffffff" cx="0" cy="0" />
<defs>
<rect id="p" width="10" height="10" />
</defs>
<g fill="#000000">
<use x="15" y="15" xlink:href="#p" />
<use x="25" y="15" xlink:href="#p" />
<use x="35" y="15" xlink:href="#p" />
<use x="45" y="15" xlink:href="#p" />
<use x="55" y="15" xlink:href="#p" />
<use x="65" y="15" xlink:href="#p" />
<use x="75" y="15" xlink:href="#p" />
<use x="95" y="15" xlink:href="#p" />
<use x="105" y="15" xlink:href="#p" />
<use x="115" y="15" xlink:href="#p" />
<use x="145" y="15" xlink:href="#p" />
<use x="165" y="15" xlink:href="#p" />
<use x="175" y="15" xlink:href="#p" />
<use x="245" y="15" xlink:href="#p" />
<use x="255" y="15" xlink:href="#p" />
<use x="275" y="15" xlink:href="#p" />
<use x="285" y="15" xlink:href="#p" />
<use x="295" y="15" xlink:href="#p" />
<use x="305" y="15" xlink:href="#p" />
<use x="315" y="15" xlink:href="#p" />
<use x="325" y="15" xlink:href="#p" />
<use x="335" y="15" xlink:href="#p" />
<use x="15" y="25" xlink:href="#p" />
<use x="75" y="25" xlink:href="#p" />
<use x="95" y="25" xlink:href="#p" />
<use x="115" y="25" xlink:href="#p" />
<use x="135" y="25" xlink:href="#p" />
<use x="175" y="25" xlink:href="#p" />
<use x="185" y="25" xlink:href="#p" />
<use x="225" y="25" xlink:href="#p" />
<use x="235" y="25" xlink:href="#p" />
<use x="255" y="25" xlink:href="#p" />
<use x="275" y="25" xlink:href="#p" />
<use x="335" y="25" xlink:href="#p" />
<use x="15" y="35" xlink:href="#p" />
<use x="35" y="35" xlink:href="#p" />
<use x="45" y="35" xlink:href="#p" />
<use x="55" y="35" xlink:href="#p" />
<use x="75" y="35" xlink:href="#p" />
<use x="95" y="35" xlink:href="#p" />
<use x="105" y="35" xlink:href="#p" />
<use x="115" y="35" xlink:href="#p" />
<use x="135" y="35" xlink:href="#p" />
<use x="155" y="35" xlink:href="#p" />
<use x="165" y="35" xlink:href="#p" />
<use x="175" y="35" xlink:href="#p" />
<use x="195" y="35" xlink:href="#p" />
<use x="225" y="35" xlink:href="#p" />
<use x="235" y="35" xlink:href="#p" />
<use x="245" y="35" xlink:href="#p" />
<use x="255" y="35" xlink:href="#p" />
<use x="275" y="35" xlink:href="#p" />
<use x="295" y="35" xlink:href="#p" />
<use x="305" y="35" xlink:href="#p" />
<use x="315" y="35" xlink:href="#p" />
<use x="335" y="35" xlink:href="#p" />
<use x="15" y="45" xlink:href="#p" />
<use x="35" y="45" xlink:href="#p" />
<use x="45" y="45" xlink:href="#p" />
<use x="55" y="45" xlink:href="#p" />
<use x="75" y="45" xlink:href="#p" />
<use x="135" y="45" xlink:href="#p" />
<use x="155" y="45" xlink:href="#p" />
<use x="165" y="45" xlink:href="#p" />
<use x="205" y="45" xlink:href="#p" />
<use x="235" y="45" xlink:href="#p" />
<use x="245" y="45" xlink:href="#p" />
<use x="255" y="45" xlink:href="#p" />
<use x="275" y="45" xlink:href="#p" />
<use x="295" y="45" xlink:href="#p" />
<use x="305" y="45" xlink:href="#p" />
<use x="315" y="45" xlink:href="#p" />
<use x="335" y="45" xlink:href="#p" />
<use x="15" y="55" xlink:href="#p" />
<use x="35" y="55" xlink:href="#p" />
<use x="45" y="55" xlink:href="#p" />
<use x="55" y="55" xlink:href="#p" />
<use x="75" y="55" xlink:href="#p" />
<use x="145" y="55" xlink:href="#p" />
<use x="155" y="55" xlink:href="#p" />
<use x="175" y="55" xlink:href="#p" />
<use x="195" y="55" xlink:href="#p" />
<use x="225" y="55" xlink:href="#p" />
<use x="275" y="55" xlink:href="#p" />
<use x="295" y="55" xlink:href="#p" />
<use x="305" y="55" xlink:href="#p" />
<use x="315" y="55" xlink:href="#p" />
<use x="335" y="55" xlink:href="#p" />
<use x="15" y="65" xlink:href="#p" />
<use x="75" y="65" xlink:href="#p" />
<use x="95" y="65" xlink:href="#p" />
<use x="105" y="65" xlink:href="#p" />
<use x="125" y="65" xlink:href="#p" />
<use x="145" y="65" xlink:href="#p" />
<use x="165" y="65" xlink:href="#p" />
<use x="185" y="65" xlink:href="#p" />
<use x="225" y="65" xlink:href="#p" />
<use x="235" y="65" xlink:href="#p" />
<use x="245" y="65" xlink:href="#p" />
<use x="255" y="65" xlink:href="#p" />
<use x="275" y="65" xlink:href="#p" />
<use x="335" y="65" xlink:href="#p" />
<use x="15" y="75" xlink:href="#p" />
<use x="25" y="75" xlink:href="#p" />
<use x="35" y="75" xlink:href="#p" />
<use x="45" y="75" xlink:href="#p" />
<use x="55" y="75" xlink:href="#p" />
<use x="65" y="75" xlink:href="#p" />
<use x="75" y="75" xlink:href="#p" />
<use x="95" y="75" xlink:href="#p" />
<use x="115" y="75" xlink:href="#p" />
<use x="135" y="75" xlink:href="#p" />
<use x="155" y="75" xlink:href="#p" />
<use x="175" y="75" xlink:href="#p" />
<use x="195" y="75" xlink:href="#p" />
<use x="215" y="75" xlink:href="#p" />
<use x="235" y="75" xlink:href="#p" />
<use x="255" y="75" xlink:href="#p" />
<use x="275" y="75" xlink:href="#p" />
<use x="285" y="75" xlink:href="#p" />
<use x="295" y="75" xlink:href="#p" />
<use x="305" y="75" xlink:href="#p" />
<use x="315" y="75" xlink:href="#p" />
<use x="325" y="75" xlink:href="#p" />
<use x="335" y="75" xlink:href="#p" />
<use x="95" y="85" xlink:href="#p" />
<use x="155" y="85" xlink:href="#p" />
<use x="165" y="85" xlink:href="#p" />
<use x="185" y="85" xlink:href="#p" />
<use x="195" y="85" xlink:href="#p" />
<use x="205" y="85" xlink:href="#p" />
<use x="215" y="85" xlink:href="#p" />
<use x="225" y="85" xlink:href="#p" />
<use x="235" y="85" xlink:href="#p" />
<use x="245" y="85" xlink:href="#p" />
<use x="35" y="95" xlink:href="#p" />
<use x="45" y="95" xlink:href="#p" />
<use x="55" y="95" xlink:href="#p" />
<use x="75" y="95" xlink:href="#p" />
<use x="95" y="95" xlink:href="#p" />
<use x="125" y="95" xlink:href="#p" />
<use x="145" y="95" xlink:href="#p" />
<use x="155" y="95" xlink:href="#p" />
<use x="175" y="95" xlink:href="#p" />
<use x="215" y="95" xlink:href="#p" />
<use x="245" y="95" xlink:href="#p" />
<use x="255" y="95" xlink:href="#p" />
<use x="265" y="95" xlink:href="#p" />
<use x="275" y="95" xlink:href="#p" />
<use x="285" y="95" xlink:href="#p" />
<use x="315" y="95" xlink:href="#p" />
<use x="325" y="95" xlink:href="#p" />
<use x="335" y="95" xlink:href="#p" />
<use x="15" y="105" xlink:href="#p" />
<use x="45" y="105" xlink:href="#p" />
<use x="55" y="105" xlink:href="#p" />
<use x="65" y="105" xlink:href="#p" />
<use x="115" y="105" xlink:href="#p" />
<use x="125" y="105" xlink:href="#p" />
<use x="135" y="105" xlink:href="#p" />
<use x="155" y="105" xlink:href="#p" />
<use x="175" y="105" xlink:href="#p" />
<use x="185" y="105" xlink:href="#p" />
<use x="205" y="105" xlink:href="#p" />
<use x="215" y="105" xlink:href="#p" />
<use x="225" y="105" xlink:href="#p" />
<use x="245" y="105" xlink:href="#p" />
<use x="265" y="105" xlink:href="#p" />
<use x="275" y="105" xlink:href="#p" />
<use x="315" y="105" xlink:href="#p" />
<use x="335" y="105" xlink:href="#p" />
<use x="35" y="115" xlink:href="#p" />
<use x="45" y="115" xlink:href="#p" />
<use x="75" y="115" xlink:href="#p" />
<use x="95" y="115" xlink:href="#p" />
<use x="115" y="115" xlink:href="#p" />
<use x="125" y="115" xlink:href="#p" />
<use x="155" y="115" xlink:href="#p" />
<use x="165" y="115" xlink:href="#p" />
<use x="195" y="115" xlink:href="#p" />
<use x="225" y="115" xlink:href="#p" />
<use x="255" y="115" xlink:href="#p" />
<use x="265" y="115" xlink:href="#p" />
<use x="285" y="115" xlink:href="#p" />
<use x="305" y="115" xlink:href="#p" />
<use x="325" y="115" xlink:href="#p" />
<use x="25" y="125" xlink:href="#p" />
<use x="35" y="125" xlink:href="#p" />
<use x="45" y="125" xlink:href="#p" />
<use x="65" y="125" xlink:href="#p" />
<use x="85" y="125" xlink:href="#p" />
<use x="95" y="125" xlink:href="#p" />
<use x="125" y="125" xlink:href="#p" />
<use x="135" y="125" xlink:href="#p" />
<use x="165" y="125" xlink:href="#p" />
<use x="195" y="125" xlink:href="#p" />
<use x="215" y="125" xlink:href="#p" />
<use x="225" y="125" xlink:href="#p" />
<use x="235" y="125" xlink:href="#p" />
<use x="245" y="125" xlink:href="#p" />
<use x="265" y="125" xlink:href="#p" />
<use x="305" y="125" xlink:href="#p" />
<use x="315" y="125" xlink:href="#p" />
<use x="325" y="125" xlink:href="#p" />
<use x="15" y="135" xlink:href="#p" />
<use x="25" y="135" xlink:href="#p" />
<use x="55" y="135" xlink:href="#p" />
<use x="65" y="135" xlink:href="#p" />
<use x="75" y="135" xlink:href="#p" />
<use x="85" y="135" xlink:href="#p" />
<use x="105" y="135" xlink:href="#p" />
<use x="115" y="135" xlink:href="#p" />
<use x="135" y="135" xlink:href="#p" />
<use x="185" y="135" xlink:href="#p" />
<use x="195" y="135" xlink:href="#p" />
<use x="225" y="135" xlink:href="#p" />
<use x="255" y="135" xlink:href="#p" />
<use x="265" y="135" xlink:href="#p" />
<use x="305" y="135" xlink:href="#p" />
<use x="335" y="135" xlink:href="#p" />
<use x="25" y="145" xlink:href="#p" />
<use x="35" y="145" xlink:href="#p" />
<use x="55" y="145" xlink:href="#p" />
<use x="85" y="145" xlink:href="#p" />
<use x="115" y="145" xlink:href="#p" />
<use x="125" y="145" xlink:href="#p" />
<use x="165" y="145" xlink:href="#p" />
<use x="175" y="145" xlink:href="#p" />
<use x="185" y="145" xlink:href="#p" />
<use x="205" y="145" xlink:href="#p" />
<use x="235" y="145" xlink:href="#p" />
<use x="245" y="145" xlink:href="#p" />
<use x="275" y="145" xlink:href="#p" />
<use x="285" y="145" xlink:href="#p" />
<use x="315" y="145" xlink:href="#p" />
<use x="335" y="145" xlink:href="#p" />
<use x="15" y="155" xlink:href="#p" />
<use x="35" y="155" xlink:href="#p" />
<use x="55" y="155" xlink:href="#p" />
<use x="75" y="155" xlink:href="#p" />
<use x="95" y="155" xlink:href="#p" />
<use x="115" y="155" xlink:href="#p" />
<use x="125" y="155" xlink:href="#p" />
<use x="165" y="155" xlink:href="#p" />
<use x="175" y="155" xlink:href="#p" />
<use x="195" y="155" xlink:href="#p" />
<use x="205" y="155" xlink:href="#p" />
<use x="215" y="155" xlink:href="#p" />
<use x="235" y="155" xlink:href="#p" />
<use x="255" y="155" xlink:href="#p" />
<use x="265" y="155" xlink:href="#p" />
<use x="305" y="155" xlink:href="#p" />
<use x="315" y="155" xlink:href="#p" />
<use x="325" y="155" xlink:href="#p" />
<use x="25" y="165" xlink:href="#p" />
<use x="85" y="165" xlink:href="#p" />
<use x="115" y="165" xlink:href="#p" />
<use x="165" y="165" xlink:href="#p" />
<use x="175" y="165" xlink:href="#p" />
<use x="185" y="165" xlink:href="#p" />
<use x="195" y="165" xlink:href="#p" />
<use x="205" y="165" xlink:href="#p" />
<use x="225" y="165" xlink:href="#p" />
<use x="235" y="165" xlink:href="#p" />
<use x="245" y="165" xlink:href="#p" />
<use x="265" y="165" xlink:href="#p" />
<use x="285" y="165" xlink:href="#p" />
<use x="315" y="165" xlink:href="#p" />
<use x="325" y="165" xlink:href="#p" />
<use x="15" y="175" xlink:href="#p" />
<use x="25" y="175" xlink:href="#p" />
<use x="35" y="175" xlink:href="#p" />
<use x="45" y="175" xlink:href="#p" />
<use x="55" y="175" xlink:href="#p" />
<use x="65" y="175" xlink:href="#p" />
<use x="75" y="175" xlink:href="#p" />
<use x="85" y="175" xlink:href="#p" />
<use x="95" y="175" xlink:href="#p" />
<use x="145" y="175" xlink:href="#p" />
<use x="165" y="175" xlink:href="#p" />
<use x="175" y="175" xlink:href="#p" />
<use x="195" y="175" xlink:href="#p" />
<use x="205" y="175" xlink:href="#p" />
<use x="245" y="175" xlink:href="#p" />
<use x="265" y="175" xlink:href="#p" />
<use x="285" y="175" xlink:href="#p" />
<use x="295" y="175" xlink:href="#p" />
<use x="305" y="175" xlink:href="#p" />
<use x="315" y="175" xlink:href="#p" />
<use x="335" y="175" xlink:href="#p" />
<use x="15" y="185" xlink:href="#p" />
<use x="25" y="185" xlink:href="#p" />
<use x="55" y="185" xlink:href="#p" />
<use x="65" y="185" xlink:href="#p" />
<use x="95" y="185" xlink:href="#p" />
<use x="115" y="185" xlink:href="#p" />
<use x="125" y="185" xlink:href="#p" />
<use x="135" y="185" xlink:href="#p" />
<use x="145" y="185" xlink:href="#p" />
<use x="155" y="185" xlink:href="#p" />
<use x="205" y="185" xlink:href="#p" />
<use x="215" y="185" xlink:href="#p" />
<use x="245" y="185" xlink:href="#p" />
<use x="255" y="185" xlink:href="#p" />
<use x="275" y="185" xlink:href="#p" />
<use x="25" y="195" xlink:href="#p" />
<use x="35" y="195" xlink:href="#p" />
<use x="45" y="195" xlink:href="#p" />
<use x="55" y="195" xlink:href="#p" />
<use x="75" y="195" xlink:href="#p" />
<use x="85" y="195" xlink:href="#p" />
<use x="95" y="195" xlink:href="#p" />
<use x="135" y="195" xlink:href="#p" />
<use x="165" y="195" xlink:href="#p" />
<use x="175" y="195" xlink:href="#p" />
<use x="225" y="195" xlink:href="#p" />
<use x="235" y="195" xlink:href="#p" />
<use x="265" y="195" xlink:href="#p" />
<use x="275" y="195" xlink:href="#p" />
<use x="285" y="195" xlink:href="#p" />
<use x="315" y="195" xlink:href="#p" />
<use x="325" y="195" xlink:href="#p" />
<use x="335" y="195" xlink:href="#p" />
<use x="25" y="205" xlink:href="#p" />
<use x="55" y="205" xlink:href="#p" />
<use x="85" y="205" xlink:href="#p" />
<use x="105" y="205" xlink:href="#p" />
<use x="115" y="205" xlink:href="#p" />
<use x="135" y="205" xlink:href="#p" />
<use x="175" y="205" xlink:href="#p" />
<use x="205" y="205" xlink:href="#p" />
<use x="225" y="205" xlink:href="#p" />
<use x="245" y="205" xlink:href="#p" />
<use x="255" y="205" xlink:href="#p" />
<use x="275" y="205" xlink:href="#p" />
<use x="295" y="205" xlink:href="#p" />
<use x="305" y="205" xlink:href="#p" />
<use x="315" y="205" xlink:href="#p" />
<use x="335" y="205" xlink:href="#p" />
<use x="25" y="215" xlink:href="#p" />
<use x="45" y="215" xlink:href="#p" />
<use x="75" y="215" xlink:href="#p" />
<use x="85" y="215" xlink:href="#p" />
<use x="165" y="215" xlink:href="#p" />
<use x="195" y="215" xlink:href="#p" />
<use x="265" y="215" xlink:href="#p" />
<use x="275" y="215" xlink:href="#p" />
<use x="295" y="215" xlink:href="#p" />
<use x="305" y="215" xlink:href="#p" />
<use x="325" y="215" xlink:href="#p" />
<use x="335" y="215" xlink:href="#p" />
<use x="15" y="225" xlink:href="#p" />
<use x="35" y="225" xlink:href="#p" />
<use x="55" y="225" xlink:href="#p" />
<use x="65" y="225" xlink:href="#p" />
<use x="85" y="225" xlink:href="#p" />
<use x="125" y="225" xlink:href="#p" />
<use x="135" y="225" xlink:href="#p" />
<use x="145" y="225" xlink:href="#p" />
<use x="185" y="225" xlink:href="#p" />
<use x="215" y="225" xlink:href="#p" />
<use x="255" y="225" xlink:href="#p" />
<use x="305" y="225" xlink:href="#p" />
<use x="325" y="225" xlink:href="#p" />
<use x="335" y="225" xlink:href="#p" />
<use x="15" y="235" xlink:href="#p" />
<use x="35" y="235" xlink:href="#p" />
<use x="55" y="235" xlink:href="#p" />
<use x="65" y="235" xlink:href="#p" />
<use x="75" y="235" xlink:href="#p" />
<use x="85" y="235" xlink:href="#p" />
<use x="105" y="235" xlink:href="#p" />
<use x="115" y="235" xlink:href="#p" />
<use x="135" y="235" xlink:href="#p" />
<use x="145" y="235" xlink:href="#p" />
<use x="155" y="235" xlink:href="#p" />
<use x="175" y="235" xlink:href="#p" />
<use x="185" y="235" xlink:href="#p" />
<use x="215" y="235" xlink:href="#p" />
<use x="235" y="235" xlink:href="#p" />
<use x="285" y="235" xlink:href="#p" />
<use x="305" y="235" xlink:href="#p" />
<use x="325" y="235" xlink:href="#p" />
<use x="15" y="245" xlink:href="#p" />
<use x="35" y="245" xlink:href="#p" />
<use x="65" y="245" xlink:href="#p" />
<use x="85" y="245" xlink:href="#p" />
<use x="105" y="245" xlink:href="#p" />
<use x="115" y="245" xlink:href="#p" />
<use x="145" y="245" xlink:href="#p" />
<use x="195" y="245" xlink:href="#p" />
<use x="205" y="245" xlink:href="#p" />
<use x="215" y="245" xlink:href="#p" />
<use x="225" y="245" xlink:href="#p" />
<use x="235" y="245" xlink:href="#p" />
<use x="255" y="245" xlink:href="#p" />
<use x="285" y="245" xlink:href="#p" />
<use x="295" y="245" xlink:href="#p" />
<use x="305" y="245" xlink:href="#p" />
<use x="315" y="245" xlink:href="#p" />
<use x="325" y="245" xlink:href="#p" />
<use x="335" y="245" xlink:href="#p" />
<use x="15" y="255" xlink:href="#p" />
<use x="35" y="255" xlink:href="#p" />
<use x="45" y="255" xlink:href="#p" />
<use x="55" y="255" xlink:href="#p" />
<use x="65" y="255" xlink:href="#p" />
<use x="75" y="255" xlink:href="#p" />
<use x="85" y="255" xlink:href="#p" />
<use x="95" y="255" xlink:href="#p" />
<use x="115" y="255" xlink:href="#p" />
<use x="135" y="255" xlink:href="#p" />
<use x="155" y="255" xlink:href="#p" />
<use x="165" y="255" xlink:href="#p" />
<use x="185" y="255" xlink:href="#p" />
<use x="215" y="255" xlink:href="#p" />
<use x="225" y="255" xlink:href="#p" />
<use x="255" y="255" xlink:href="#p" />
<use x="265" y="255" xlink:href="#p" />
<use x="275" y="255" xlink:href="#p" />
<use x="285" y="255" xlink:href="#p" />
<use x="295" y="255" xlink:href="#p" />
<use x="325" y="255" xlink:href="#p" />
<use x="335" y="255" xlink:href="#p" />
<use x="95" y="265" xlink:href="#p" />
<use x="105" y="265" xlink:href="#p" />
<use x="115" y="265" xlink:href="#p" />
<use x="125" y="265" xlink:href="#p" />
<use x="135" y="265" xlink:href="#p" />
<use x="155" y="265" xlink:href="#p" />
<use x="165" y="265" xlink:href="#p" />
<use x="245" y="265" xlink:href="#p" />
<use x="255" y="265" xlink:href="#p" />
<use x="295" y="265" xlink:href="#p" />
<use x="315" y="265" xlink:href="#p" />
<use x="325" y="265" xlink:href="#p" />
<use x="335" y="265" xlink:href="#p" />
<use x="15" y="275" xlink:href="#p" />
<use x="25" y="275" xlink:href="#p" />
<use x="35" y="275" xlink:href="#p" />
<use x="45" y="275" xlink:href="#p" />
<use x="55" y="275" xlink:href="#p" />
<use x="65" y="275" xlink:href="#p" />
<use x="75" y="275" xlink:href="#p" />
<use x="125" y="275" xlink:href="#p" />
<use x="135" y="275" xlink:href="#p" />
<use x="145" y="275" xlink:href="#p" />
<use x="155" y="275" xlink:href="#p" />
<use x="195" y="275" xlink:href="#p" />
<use x="205" y="275" xlink:href="#p" />
<use x="215" y="275" xlink:href="#p" />
<use x="235" y="275" xlink:href="#p" />
<use x="245" y="275" xlink:href="#p" />
<use x="255" y="275" xlink:href="#p" />
<use x="275" y="275" xlink:href="#p" />
<use x="295" y="275" xlink:href="#p" />
<use x="315" y="275" xlink:href="#p" />
<use x="325" y="275" xlink:href="#p" />
<use x="15" y="285" xlink:href="#p" />
<use x="75" y="285" xlink:href="#p" />
<use x="105" y="285" xlink:href="#p" />
<use x="115" y="285" xlink:href="#p" />
<use x="125" y="285" xlink:href="#p" />
<use x="145" y="285" xlink:href="#p" />
<use x="165" y="285" xlink:href="#p" />
<use x="215" y="285" xlink:href="#p" />
<use x="245" y="285" xlink:href="#p" />
<use x="255" y="285" xlink:href="#p" />
<use x="295" y="285" xlink:href="#p" />
<use x="305" y="285" xlink:href="#p" />
<use x="315" y="285" xlink:href="#p" />
<use x="325" y="285" xlink:href="#p" />
<use x="335" y="285" xlink:href="#p" />
<use x="15" y="295" xlink:href="#p" />
<use x="35" y="295" xlink:href="#p" />
<use x="45" y="295" xlink:href="#p" />
<use x="55" y="295" xlink:href="#p" />
<use x="75" y="295" xlink:href="#p" />
<use x="95" y="295" xlink:href="#p" />
<use x="105" y="295" xlink:href="#p" />
<use x="115" y="295" xlink:href="#p" />
<use x="145" y="295" xlink:href="#p" />
<use x="155" y="295" xlink:href="#p" />
<use x="165" y="295" xlink:href="#p" />
<use x="225" y="295" xlink:href="#p" />
<use x="235" y="295" xlink:href="#p" />
<use x="255" y="295" xlink:href="#p" />
<use x="265" y="295" xlink:href="#p" />
<use x="275" y="295" xlink:href="#p" />
<use x="285" y="295" xlink:href="#p" />
<use x="295" y="295" xlink:href="#p" />
<use x="315" y="295" xlink:href="#p" />
<use x="325" y="295" xlink:href="#p" />
<use x="335" y="295" xlink:href="#p" />
<use x="15" y="305" xlink:href="#p" />
<use x="35" y="305" xlink:href="#p" />
<use x="45" y="305" xlink:href="#p" />
<use x="55" y="305" xlink:href="#p" />
<use x="75" y="305" xlink:href="#p" />
<use x="95" y="305" xlink:href="#p" />
<use x="125" y="305" xlink:href="#p" />
<use x="135" y="305" xlink:href="#p" />
<use x="185" y="305" xlink:href="#p" />
<use x="245" y="305" xlink:href="#p" />
<use x="255" y="305" xlink:href="#p" />
<use x="265" y="305" xlink:href="#p" />
<use x="295" y="305" xlink:href="#p" />
<use x="305" y="305" xlink:href="#p" />
<use x="325" y="305" xlink:href="#p" />
<use x="15" y="315" xlink:href="#p" />
<use x="35" y="315" xlink:href="#p" />
<use x="45" y="315" xlink:href="#p" />
<use x="55" y="315" xlink:href="#p" />
<use x="75" y="315" xlink:href="#p" />
<use x="95" y="315" xlink:href="#p" />
<use x="105" y="315" xlink:href="#p" />
<use x="125" y="315" xlink:href="#p" />
<use x="135" y="315" xlink:href="#p" />
<use x="155" y="315" xlink:href="#p" />
<use x="175" y="315" xlink:href="#p" />
<use x="185" y="315" xlink:href="#p" />
<use x="205" y="315" xlink:href="#p" />
<use x="215" y="315" xlink:href="#p" />
<use x="225" y="315" xlink:href="#p" />
<use x="235" y="315" xlink:href="#p" />
<use x="255" y="315" xlink:href="#p" />
<use x="265" y="315" xlink:href="#p" />
<use x="275" y="315" xlink:href="#p" />
<use x="15" y="325" xlink:href="#p" />
<use x="75" y="325" xlink:href="#p" />
<use x="135" y="325" xlink:href="#p" />
<use x="145" y="325" xlink:href="#p" />
<use x="155" y="325" xlink:href="#p" />
<use x="165" y="325" xlink:href="#p" />
<use x="175" y="325" xlink:href="#p" />
<use x="215" y="325" xlink:href="#p" />
<use x="225" y="325" xlink:href="#p" />
<use x="285" y="325" xlink:href="#p" />
<use x="305" y="325" xlink:href="#p" />
<use x="15" y="335" xlink:href="#p" />
<use x="25" y="335" xlink:href="#p" />
<use x="35" y="335" xlink:href="#p" />
<use x="45" y="335" xlink:href="#p" />
<use x="55" y="335" xlink:href="#p" />
<use x="65" y="335" xlink:href="#p" />
<use x="75" y="335" xlink:href="#p" />
<use x="115" y="335" xlink:href="#p" />
<use x="135" y="335" xlink:href="#p" />
<use x="165" y="335" xlink:href="#p" />
<use x="185" y="335" xlink:href="#p" />
<use x="195" y="335" xlink:href="#p" />
<use x="215" y="335" xlink:href="#p" />
<use x="225" y="335" xlink:href="#p" />
<use x="255" y="335" xlink:href="#p" />
<use x="265" y="335" xlink:href="#p" />
<use x="315" y="335" xlink:href="#p" />
<use x="325" y="335" xlink:href="#p" />
</g>
</svg>